<svg xmlns="http://www.w3.org/2000/svg" width="47" height="44"><path fill="#262626" d="M45.563 8.279l-3.76 15.68a1.658 1.658 0 01-1.613 1.27H19.887c-.72 0-1.36-.465-1.579-1.153L13.317 8.469a2.67 2.67 0 01.385-2.385 2.669 2.669 0 012.153-1.093h27.117a2.666 2.666 0 012.591 3.288zm1.287 22.333a2.427 2.427 0 01-2.427 2.429H18.236a6.969 6.969 0 01-6.65-4.845L4.378 5.844a.236.236 0 00-.225-.164H2.577a2.428 2.428 0 110-4.857h1.576a5.077 5.077 0 014.845 3.532l7.209 22.352a2.127 2.127 0 002.03 1.477h26.186a2.428 2.428 0 012.427 2.428zM23.828 39.71a3.87 3.87 0 11-7.742 0 3.872 3.872 0 117.742 0zm20.33 0a3.87 3.87 0 11-7.742 0 3.872 3.872 0 013.87-3.873 3.872 3.872 0 013.871 3.873z"/></svg>